<svg width="1440" height="800" viewBox="0 0 1440 800" fill="none" xmlns="http://www.w3.org/2000/svg">
  <g opacity="0.3">
    <!-- Première vague bleu clair -->
    <path d="M0 200C120 160 240 80 360 80C480 80 600 160 720 200C840 240 960 240 1080 200C1200 160 1320 80 1440 80L1440 800L0 800L0 200Z" fill="url(#paint0_linear)" />
    
    <!-- Deuxième vague violet clair -->
    <path d="M0 300C120 260 240 180 360 180C480 180 600 260 720 300C840 340 960 340 1080 300C1200 260 1320 180 1440 180L1440 800L0 800L0 300Z" fill="url(#paint1_linear)" opacity="0.7" />
    
    <!-- Troisième vague bleu très clair -->
    <path d="M0 400C120 360 240 280 360 280C480 280 600 360 720 400C840 440 960 440 1080 400C1200 360 1320 280 1440 280L1440 800L0 800L0 400Z" fill="url(#paint2_linear)" opacity="0.5" />
  </g>
  
  <defs>
    <linearGradient id="paint0_linear" x1="0" y1="80" x2="1440" y2="80" gradientUnits="userSpaceOnUse">
      <stop offset="0" stop-color="#2563EB" stop-opacity="0.1" />
      <stop offset="1" stop-color="#8B5CF6" stop-opacity="0.1" />
    </linearGradient>
    
    <linearGradient id="paint1_linear" x1="0" y1="180" x2="1440" y2="180" gradientUnits="userSpaceOnUse">
      <stop offset="0" stop-color="#8B5CF6" stop-opacity="0.1" />
      <stop offset="1" stop-color="#2563EB" stop-opacity="0.1" />
    </linearGradient>
    
    <linearGradient id="paint2_linear" x1="0" y1="280" x2="1440" y2="280" gradientUnits="userSpaceOnUse">
      <stop offset="0" stop-color="#2563EB" stop-opacity="0.05" />
      <stop offset="1" stop-color="#8B5CF6" stop-opacity="0.05" />
    </linearGradient>
  </defs>
</svg>
